<mxfile host="app.diagrams.net" modified="2023-09-04T08:52:19.154Z" agent="Mozilla/5.0 (Macintosh; Intel Mac OS X 10_15_7) AppleWebKit/537.36 (KHTML, like Gecko) Chrome/116.0.0.0 Safari/537.36" etag="4z8rFbe0s_0gQQYwJI4Z" version="21.5.0" type="github">
  <diagram name="페이지-1" id="qLSV0dfj5ZLE2dZr3HD9">
    <mxGraphModel dx="1434" dy="765" grid="1" gridSize="10" guides="1" tooltips="1" connect="1" arrows="1" fold="1" page="1" pageScale="1" pageWidth="827" pageHeight="1169" math="0" shadow="0">
      <root>
        <mxCell id="0" />
        <mxCell id="1" parent="0" />
        <mxCell id="izPcXdR4LeE3ra15hJga-1" value="이용자" style="shape=umlActor;verticalLabelPosition=bottom;verticalAlign=top;html=1;" vertex="1" parent="1">
          <mxGeometry x="40" y="310" width="30" height="60" as="geometry" />
        </mxCell>
        <mxCell id="izPcXdR4LeE3ra15hJga-2" value="게시판 서비스" style="shape=umlFrame;whiteSpace=wrap;html=1;pointerEvents=0;width=80;height=30;" vertex="1" parent="1">
          <mxGeometry x="120" y="40" width="610" height="710" as="geometry" />
        </mxCell>
        <mxCell id="izPcXdR4LeE3ra15hJga-22" style="rounded=0;orthogonalLoop=1;jettySize=auto;html=1;entryX=1;entryY=0.3333333333333333;entryDx=0;entryDy=0;entryPerimeter=0;exitX=0;exitY=0.5;exitDx=0;exitDy=0;endArrow=none;endFill=0;" edge="1" parent="1" source="izPcXdR4LeE3ra15hJga-3" target="izPcXdR4LeE3ra15hJga-1">
          <mxGeometry relative="1" as="geometry" />
        </mxCell>
        <mxCell id="izPcXdR4LeE3ra15hJga-3" value="회원 가입" style="rounded=1;whiteSpace=wrap;html=1;arcSize=40;fontColor=#000000;fillColor=#ffffc0;strokeColor=#ff0000;" vertex="1" parent="1">
          <mxGeometry x="160" y="310" width="120" height="40" as="geometry" />
        </mxCell>
        <mxCell id="izPcXdR4LeE3ra15hJga-24" style="rounded=0;orthogonalLoop=1;jettySize=auto;html=1;endArrow=none;endFill=0;exitX=0;exitY=0.5;exitDx=0;exitDy=0;" edge="1" parent="1" source="izPcXdR4LeE3ra15hJga-5">
          <mxGeometry relative="1" as="geometry">
            <mxPoint x="70" y="330" as="targetPoint" />
          </mxGeometry>
        </mxCell>
        <mxCell id="izPcXdR4LeE3ra15hJga-30" style="rounded=0;orthogonalLoop=1;jettySize=auto;html=1;entryX=0.5;entryY=1;entryDx=0;entryDy=0;exitX=1;exitY=0.5;exitDx=0;exitDy=0;dashed=1;" edge="1" parent="1" source="izPcXdR4LeE3ra15hJga-5" target="izPcXdR4LeE3ra15hJga-7">
          <mxGeometry relative="1" as="geometry" />
        </mxCell>
        <mxCell id="izPcXdR4LeE3ra15hJga-39" style="rounded=0;orthogonalLoop=1;jettySize=auto;html=1;entryX=0;entryY=0.5;entryDx=0;entryDy=0;exitX=1;exitY=0.5;exitDx=0;exitDy=0;endArrow=none;endFill=0;startArrow=classic;startFill=1;" edge="1" parent="1" source="izPcXdR4LeE3ra15hJga-5" target="izPcXdR4LeE3ra15hJga-36">
          <mxGeometry relative="1" as="geometry" />
        </mxCell>
        <mxCell id="izPcXdR4LeE3ra15hJga-5" value="게시판 보기" style="rounded=1;whiteSpace=wrap;html=1;arcSize=40;fontColor=#000000;fillColor=#ffffc0;strokeColor=#ff0000;" vertex="1" parent="1">
          <mxGeometry x="160" y="440" width="120" height="40" as="geometry" />
        </mxCell>
        <mxCell id="izPcXdR4LeE3ra15hJga-25" style="rounded=0;orthogonalLoop=1;jettySize=auto;html=1;endArrow=none;endFill=0;exitX=0;exitY=0.5;exitDx=0;exitDy=0;entryX=1;entryY=0.3333333333333333;entryDx=0;entryDy=0;entryPerimeter=0;" edge="1" parent="1" source="izPcXdR4LeE3ra15hJga-6" target="izPcXdR4LeE3ra15hJga-1">
          <mxGeometry relative="1" as="geometry" />
        </mxCell>
        <mxCell id="izPcXdR4LeE3ra15hJga-31" style="rounded=0;orthogonalLoop=1;jettySize=auto;html=1;entryX=0.5;entryY=1;entryDx=0;entryDy=0;dashed=1;exitX=1;exitY=0.5;exitDx=0;exitDy=0;" edge="1" parent="1" source="izPcXdR4LeE3ra15hJga-6" target="izPcXdR4LeE3ra15hJga-7">
          <mxGeometry relative="1" as="geometry" />
        </mxCell>
        <mxCell id="izPcXdR4LeE3ra15hJga-6" value="게시글 보기" style="rounded=1;whiteSpace=wrap;html=1;arcSize=40;fontColor=#000000;fillColor=#ffffc0;strokeColor=#ff0000;" vertex="1" parent="1">
          <mxGeometry x="160" y="585" width="120" height="40" as="geometry" />
        </mxCell>
        <mxCell id="izPcXdR4LeE3ra15hJga-23" style="rounded=0;orthogonalLoop=1;jettySize=auto;html=1;entryX=1;entryY=0.3333333333333333;entryDx=0;entryDy=0;entryPerimeter=0;endArrow=none;endFill=0;exitX=0;exitY=0.5;exitDx=0;exitDy=0;" edge="1" parent="1" source="izPcXdR4LeE3ra15hJga-7" target="izPcXdR4LeE3ra15hJga-1">
          <mxGeometry relative="1" as="geometry" />
        </mxCell>
        <mxCell id="izPcXdR4LeE3ra15hJga-26" style="edgeStyle=orthogonalEdgeStyle;rounded=0;orthogonalLoop=1;jettySize=auto;html=1;dashed=1;" edge="1" parent="1" source="izPcXdR4LeE3ra15hJga-7" target="izPcXdR4LeE3ra15hJga-8">
          <mxGeometry relative="1" as="geometry" />
        </mxCell>
        <mxCell id="izPcXdR4LeE3ra15hJga-27" value="&amp;lt;&amp;lt;include&amp;gt;&amp;gt;" style="edgeLabel;html=1;align=center;verticalAlign=middle;resizable=0;points=[];" vertex="1" connectable="0" parent="izPcXdR4LeE3ra15hJga-26">
          <mxGeometry x="-0.2923" y="-1" relative="1" as="geometry">
            <mxPoint x="14" y="-1" as="offset" />
          </mxGeometry>
        </mxCell>
        <mxCell id="izPcXdR4LeE3ra15hJga-7" value="회원 로그인" style="rounded=1;whiteSpace=wrap;html=1;arcSize=40;fontColor=#000000;fillColor=#ffffc0;strokeColor=#ff0000;" vertex="1" parent="1">
          <mxGeometry x="270" y="120" width="120" height="40" as="geometry" />
        </mxCell>
        <mxCell id="izPcXdR4LeE3ra15hJga-38" style="rounded=0;orthogonalLoop=1;jettySize=auto;html=1;entryX=0;entryY=0.5;entryDx=0;entryDy=0;exitX=1;exitY=0.5;exitDx=0;exitDy=0;endArrow=none;endFill=0;" edge="1" parent="1" source="izPcXdR4LeE3ra15hJga-8" target="izPcXdR4LeE3ra15hJga-36">
          <mxGeometry relative="1" as="geometry" />
        </mxCell>
        <mxCell id="izPcXdR4LeE3ra15hJga-8" value="인증" style="rounded=1;whiteSpace=wrap;html=1;arcSize=40;fontColor=#000000;fillColor=#ffffc0;strokeColor=#ff0000;" vertex="1" parent="1">
          <mxGeometry x="520" y="120" width="120" height="40" as="geometry" />
        </mxCell>
        <mxCell id="izPcXdR4LeE3ra15hJga-32" style="rounded=0;orthogonalLoop=1;jettySize=auto;html=1;entryX=1;entryY=0.5;entryDx=0;entryDy=0;dashed=1;exitX=0;exitY=0.5;exitDx=0;exitDy=0;" edge="1" parent="1" source="izPcXdR4LeE3ra15hJga-9" target="izPcXdR4LeE3ra15hJga-5">
          <mxGeometry relative="1" as="geometry" />
        </mxCell>
        <mxCell id="izPcXdR4LeE3ra15hJga-9" value="게시판 정렬" style="rounded=1;whiteSpace=wrap;html=1;arcSize=40;fontColor=#000000;fillColor=#ffffc0;strokeColor=#ff0000;" vertex="1" parent="1">
          <mxGeometry x="400" y="310" width="120" height="40" as="geometry" />
        </mxCell>
        <mxCell id="izPcXdR4LeE3ra15hJga-33" style="rounded=0;orthogonalLoop=1;jettySize=auto;html=1;entryX=1;entryY=0.5;entryDx=0;entryDy=0;dashed=1;" edge="1" parent="1" source="izPcXdR4LeE3ra15hJga-10" target="izPcXdR4LeE3ra15hJga-5">
          <mxGeometry relative="1" as="geometry" />
        </mxCell>
        <mxCell id="izPcXdR4LeE3ra15hJga-10" value="게시판 검색" style="rounded=1;whiteSpace=wrap;html=1;arcSize=40;fontColor=#000000;fillColor=#ffffc0;strokeColor=#ff0000;" vertex="1" parent="1">
          <mxGeometry x="400" y="440" width="120" height="40" as="geometry" />
        </mxCell>
        <mxCell id="izPcXdR4LeE3ra15hJga-34" style="rounded=0;orthogonalLoop=1;jettySize=auto;html=1;entryX=1;entryY=0.5;entryDx=0;entryDy=0;dashed=1;exitX=0;exitY=0.5;exitDx=0;exitDy=0;exitPerimeter=0;" edge="1" parent="1" source="izPcXdR4LeE3ra15hJga-11" target="izPcXdR4LeE3ra15hJga-6">
          <mxGeometry relative="1" as="geometry" />
        </mxCell>
        <mxCell id="izPcXdR4LeE3ra15hJga-11" value="게시글 쓰기, 수정, 삭제" style="rounded=1;whiteSpace=wrap;html=1;arcSize=40;fontColor=#000000;fillColor=#ffffc0;strokeColor=#ff0000;" vertex="1" parent="1">
          <mxGeometry x="400" y="560" width="120" height="40" as="geometry" />
        </mxCell>
        <mxCell id="izPcXdR4LeE3ra15hJga-35" style="rounded=0;orthogonalLoop=1;jettySize=auto;html=1;entryX=1;entryY=0.5;entryDx=0;entryDy=0;dashed=1;exitX=0;exitY=0.5;exitDx=0;exitDy=0;" edge="1" parent="1" source="izPcXdR4LeE3ra15hJga-12" target="izPcXdR4LeE3ra15hJga-6">
          <mxGeometry relative="1" as="geometry" />
        </mxCell>
        <mxCell id="izPcXdR4LeE3ra15hJga-12" value="댓글 보기, 쓰기,&lt;br&gt;수정, 삭제" style="rounded=1;whiteSpace=wrap;html=1;arcSize=40;fontColor=#000000;fillColor=#ffffc0;strokeColor=#ff0000;" vertex="1" parent="1">
          <mxGeometry x="400" y="640" width="120" height="40" as="geometry" />
        </mxCell>
        <mxCell id="izPcXdR4LeE3ra15hJga-28" style="rounded=0;orthogonalLoop=1;jettySize=auto;html=1;entryX=1;entryY=0.5;entryDx=0;entryDy=0;exitX=0;exitY=0.5;exitDx=0;exitDy=0;dashed=1;" edge="1" parent="1" source="izPcXdR4LeE3ra15hJga-13" target="izPcXdR4LeE3ra15hJga-7">
          <mxGeometry relative="1" as="geometry" />
        </mxCell>
        <mxCell id="izPcXdR4LeE3ra15hJga-29" value="&amp;lt;&amp;lt;extend&amp;gt;&amp;gt;" style="edgeLabel;html=1;align=center;verticalAlign=middle;resizable=0;points=[];" vertex="1" connectable="0" parent="izPcXdR4LeE3ra15hJga-28">
          <mxGeometry x="-0.0876" y="-1" relative="1" as="geometry">
            <mxPoint y="1" as="offset" />
          </mxGeometry>
        </mxCell>
        <mxCell id="izPcXdR4LeE3ra15hJga-13" value="로그인 실패" style="rounded=1;whiteSpace=wrap;html=1;arcSize=40;fontColor=#000000;fillColor=#ffffc0;strokeColor=#ff0000;" vertex="1" parent="1">
          <mxGeometry x="520" y="200" width="120" height="40" as="geometry" />
        </mxCell>
        <mxCell id="izPcXdR4LeE3ra15hJga-40" style="rounded=0;orthogonalLoop=1;jettySize=auto;html=1;exitX=0;exitY=0.5;exitDx=0;exitDy=0;entryX=1;entryY=0.5;entryDx=0;entryDy=0;endArrow=none;endFill=0;" edge="1" parent="1" source="izPcXdR4LeE3ra15hJga-36" target="izPcXdR4LeE3ra15hJga-6">
          <mxGeometry relative="1" as="geometry">
            <Array as="points">
              <mxPoint x="550" y="480" />
            </Array>
          </mxGeometry>
        </mxCell>
        <mxCell id="izPcXdR4LeE3ra15hJga-41" style="rounded=0;orthogonalLoop=1;jettySize=auto;html=1;entryX=1;entryY=0.5;entryDx=0;entryDy=0;exitX=0;exitY=0.5;exitDx=0;exitDy=0;endArrow=none;endFill=0;" edge="1" parent="1" source="izPcXdR4LeE3ra15hJga-36" target="izPcXdR4LeE3ra15hJga-11">
          <mxGeometry relative="1" as="geometry" />
        </mxCell>
        <mxCell id="izPcXdR4LeE3ra15hJga-42" style="rounded=0;orthogonalLoop=1;jettySize=auto;html=1;entryX=1;entryY=0.5;entryDx=0;entryDy=0;exitX=0;exitY=0.5;exitDx=0;exitDy=0;endArrow=none;endFill=0;" edge="1" parent="1" source="izPcXdR4LeE3ra15hJga-36" target="izPcXdR4LeE3ra15hJga-12">
          <mxGeometry relative="1" as="geometry" />
        </mxCell>
        <mxCell id="izPcXdR4LeE3ra15hJga-36" value="Data Base" style="html=1;dropTarget=0;whiteSpace=wrap;" vertex="1" parent="1">
          <mxGeometry x="760" y="200" width="80" height="90" as="geometry" />
        </mxCell>
      </root>
    </mxGraphModel>
  </diagram>
</mxfile>
